<mxfile host="app.diagrams.net" modified="2023-12-12T04:15:53.328Z" agent="Mozilla/5.0 (Windows NT 10.0; Win64; x64; rv:120.0) Gecko/20100101 Firefox/120.0" etag="Ce9vimhOAeedEiWCKp_f" version="22.1.7" type="google">
  <diagram id="C5RBs43oDa-KdzZeNtuy" name="Page-1">
    <mxGraphModel grid="1" page="1" gridSize="10" guides="1" tooltips="1" connect="1" arrows="1" fold="1" pageScale="1" pageWidth="827" pageHeight="1169" math="0" shadow="0">
      <root>
        <mxCell id="WIyWlLk6GJQsqaUBKTNV-0" />
        <mxCell id="WIyWlLk6GJQsqaUBKTNV-1" parent="WIyWlLk6GJQsqaUBKTNV-0" />
        <mxCell id="bLsItndPB2Trqsh2UZ6V-6" value="" style="edgeStyle=orthogonalEdgeStyle;rounded=0;orthogonalLoop=1;jettySize=auto;html=1;entryX=0.5;entryY=0;entryDx=0;entryDy=0;" edge="1" parent="WIyWlLk6GJQsqaUBKTNV-1" source="bLsItndPB2Trqsh2UZ6V-0" target="bLsItndPB2Trqsh2UZ6V-4">
          <mxGeometry relative="1" as="geometry" />
        </mxCell>
        <mxCell id="bLsItndPB2Trqsh2UZ6V-0" value="Main" style="strokeWidth=2;html=1;shape=mxgraph.flowchart.terminator;whiteSpace=wrap;" vertex="1" parent="WIyWlLk6GJQsqaUBKTNV-1">
          <mxGeometry x="50" y="100" width="100" height="60" as="geometry" />
        </mxCell>
        <mxCell id="bLsItndPB2Trqsh2UZ6V-3" value="" style="edgeStyle=orthogonalEdgeStyle;rounded=0;orthogonalLoop=1;jettySize=auto;html=1;" edge="1" parent="WIyWlLk6GJQsqaUBKTNV-1" source="bLsItndPB2Trqsh2UZ6V-1" target="bLsItndPB2Trqsh2UZ6V-0">
          <mxGeometry relative="1" as="geometry" />
        </mxCell>
        <mxCell id="bLsItndPB2Trqsh2UZ6V-1" value="Setup" style="strokeWidth=2;html=1;shape=mxgraph.flowchart.terminator;whiteSpace=wrap;" vertex="1" parent="WIyWlLk6GJQsqaUBKTNV-1">
          <mxGeometry x="50" y="10" width="100" height="60" as="geometry" />
        </mxCell>
        <mxCell id="bLsItndPB2Trqsh2UZ6V-8" value="" style="edgeStyle=orthogonalEdgeStyle;rounded=0;orthogonalLoop=1;jettySize=auto;html=1;" edge="1" parent="WIyWlLk6GJQsqaUBKTNV-1" source="bLsItndPB2Trqsh2UZ6V-4" target="bLsItndPB2Trqsh2UZ6V-5">
          <mxGeometry relative="1" as="geometry" />
        </mxCell>
        <mxCell id="bLsItndPB2Trqsh2UZ6V-4" value="&lt;div&gt;Load PW2 &lt;br&gt;&lt;/div&gt;&lt;div&gt;Regisster&lt;br&gt;&lt;/div&gt;" style="rounded=1;whiteSpace=wrap;html=1;absoluteArcSize=1;arcSize=14;strokeWidth=2;" vertex="1" parent="WIyWlLk6GJQsqaUBKTNV-1">
          <mxGeometry x="50" y="190" width="100" height="50" as="geometry" />
        </mxCell>
        <mxCell id="bLsItndPB2Trqsh2UZ6V-12" value="" style="edgeStyle=orthogonalEdgeStyle;rounded=0;orthogonalLoop=1;jettySize=auto;html=1;" edge="1" parent="WIyWlLk6GJQsqaUBKTNV-1" source="bLsItndPB2Trqsh2UZ6V-5" target="bLsItndPB2Trqsh2UZ6V-10">
          <mxGeometry relative="1" as="geometry" />
        </mxCell>
        <mxCell id="bLsItndPB2Trqsh2UZ6V-5" value="&lt;div&gt;Load PW1&lt;/div&gt;&lt;div&gt;Register&lt;br&gt;&lt;/div&gt;" style="rounded=1;whiteSpace=wrap;html=1;absoluteArcSize=1;arcSize=14;strokeWidth=2;" vertex="1" parent="WIyWlLk6GJQsqaUBKTNV-1">
          <mxGeometry x="50" y="270" width="100" height="50" as="geometry" />
        </mxCell>
        <mxCell id="bLsItndPB2Trqsh2UZ6V-16" value="" style="edgeStyle=orthogonalEdgeStyle;rounded=0;orthogonalLoop=1;jettySize=auto;html=1;" edge="1" parent="WIyWlLk6GJQsqaUBKTNV-1" source="bLsItndPB2Trqsh2UZ6V-10" target="bLsItndPB2Trqsh2UZ6V-13">
          <mxGeometry relative="1" as="geometry" />
        </mxCell>
        <mxCell id="bLsItndPB2Trqsh2UZ6V-10" value="&lt;div&gt;Setup ADC/&lt;/div&gt;&lt;div&gt;Make Convertion&lt;br&gt;&lt;/div&gt;" style="rounded=1;whiteSpace=wrap;html=1;absoluteArcSize=1;arcSize=14;strokeWidth=2;" vertex="1" parent="WIyWlLk6GJQsqaUBKTNV-1">
          <mxGeometry x="50" y="350" width="100" height="50" as="geometry" />
        </mxCell>
        <mxCell id="bLsItndPB2Trqsh2UZ6V-21" value="" style="edgeStyle=orthogonalEdgeStyle;rounded=0;orthogonalLoop=1;jettySize=auto;html=1;" edge="1" parent="WIyWlLk6GJQsqaUBKTNV-1" source="bLsItndPB2Trqsh2UZ6V-13" target="bLsItndPB2Trqsh2UZ6V-18">
          <mxGeometry relative="1" as="geometry">
            <Array as="points">
              <mxPoint x="170" y="485" />
              <mxPoint x="170" y="485" />
            </Array>
          </mxGeometry>
        </mxCell>
        <mxCell id="bLsItndPB2Trqsh2UZ6V-22" value="Yes" style="edgeLabel;html=1;align=center;verticalAlign=middle;resizable=0;points=[];" connectable="0" vertex="1" parent="bLsItndPB2Trqsh2UZ6V-21">
          <mxGeometry x="0.1" y="-2" relative="1" as="geometry">
            <mxPoint y="1" as="offset" />
          </mxGeometry>
        </mxCell>
        <mxCell id="bLsItndPB2Trqsh2UZ6V-13" value="&lt;div&gt;Test High&lt;/div&gt;&lt;div&gt;Setpoint&lt;br&gt;&lt;/div&gt;" style="strokeWidth=2;html=1;shape=mxgraph.flowchart.decision;whiteSpace=wrap;" vertex="1" parent="WIyWlLk6GJQsqaUBKTNV-1">
          <mxGeometry x="50" y="434.5" width="100" height="100" as="geometry" />
        </mxCell>
        <mxCell id="bLsItndPB2Trqsh2UZ6V-26" value="" style="edgeStyle=orthogonalEdgeStyle;rounded=0;orthogonalLoop=1;jettySize=auto;html=1;" edge="1" parent="WIyWlLk6GJQsqaUBKTNV-1" source="bLsItndPB2Trqsh2UZ6V-15" target="bLsItndPB2Trqsh2UZ6V-20">
          <mxGeometry relative="1" as="geometry">
            <Array as="points">
              <mxPoint x="170" y="610" />
              <mxPoint x="170" y="610" />
            </Array>
          </mxGeometry>
        </mxCell>
        <mxCell id="bLsItndPB2Trqsh2UZ6V-27" value="Yes" style="edgeLabel;html=1;align=center;verticalAlign=middle;resizable=0;points=[];" connectable="0" vertex="1" parent="bLsItndPB2Trqsh2UZ6V-26">
          <mxGeometry x="-0.4333" y="-1" relative="1" as="geometry">
            <mxPoint as="offset" />
          </mxGeometry>
        </mxCell>
        <mxCell id="bLsItndPB2Trqsh2UZ6V-15" value="&lt;div&gt;Test Low &lt;br&gt;&lt;/div&gt;&lt;div&gt;Setpoint&lt;br&gt;&lt;/div&gt;" style="strokeWidth=2;html=1;shape=mxgraph.flowchart.decision;whiteSpace=wrap;" vertex="1" parent="WIyWlLk6GJQsqaUBKTNV-1">
          <mxGeometry x="50" y="560" width="100" height="100" as="geometry" />
        </mxCell>
        <mxCell id="bLsItndPB2Trqsh2UZ6V-18" value="Stop Compressor" style="rounded=1;whiteSpace=wrap;html=1;absoluteArcSize=1;arcSize=14;strokeWidth=2;" vertex="1" parent="WIyWlLk6GJQsqaUBKTNV-1">
          <mxGeometry x="210" y="459.5" width="100" height="50" as="geometry" />
        </mxCell>
        <mxCell id="bLsItndPB2Trqsh2UZ6V-20" value="Start Compressor" style="rounded=1;whiteSpace=wrap;html=1;absoluteArcSize=1;arcSize=14;strokeWidth=2;" vertex="1" parent="WIyWlLk6GJQsqaUBKTNV-1">
          <mxGeometry x="210" y="585" width="100" height="50" as="geometry" />
        </mxCell>
        <mxCell id="bLsItndPB2Trqsh2UZ6V-23" value="" style="endArrow=classic;html=1;rounded=0;entryX=0.5;entryY=0;entryDx=0;entryDy=0;entryPerimeter=0;exitX=0.5;exitY=1;exitDx=0;exitDy=0;exitPerimeter=0;" edge="1" parent="WIyWlLk6GJQsqaUBKTNV-1" source="bLsItndPB2Trqsh2UZ6V-13" target="bLsItndPB2Trqsh2UZ6V-15">
          <mxGeometry width="50" height="50" relative="1" as="geometry">
            <mxPoint x="30" y="590" as="sourcePoint" />
            <mxPoint x="80" y="540" as="targetPoint" />
          </mxGeometry>
        </mxCell>
        <mxCell id="bLsItndPB2Trqsh2UZ6V-24" value="NO" style="text;html=1;align=center;verticalAlign=middle;resizable=0;points=[];autosize=1;strokeColor=none;fillColor=none;" vertex="1" parent="WIyWlLk6GJQsqaUBKTNV-1">
          <mxGeometry x="100" y="528" width="40" height="30" as="geometry" />
        </mxCell>
        <mxCell id="bLsItndPB2Trqsh2UZ6V-25" value="NO" style="text;html=1;align=center;verticalAlign=middle;resizable=0;points=[];autosize=1;strokeColor=none;fillColor=none;" vertex="1" parent="WIyWlLk6GJQsqaUBKTNV-1">
          <mxGeometry x="100" y="660" width="40" height="30" as="geometry" />
        </mxCell>
        <mxCell id="bLsItndPB2Trqsh2UZ6V-28" value="" style="endArrow=classic;html=1;rounded=0;exitX=0.5;exitY=1;exitDx=0;exitDy=0;exitPerimeter=0;" edge="1" parent="WIyWlLk6GJQsqaUBKTNV-1" source="bLsItndPB2Trqsh2UZ6V-15" target="bLsItndPB2Trqsh2UZ6V-0">
          <mxGeometry width="50" height="50" relative="1" as="geometry">
            <mxPoint x="-30" y="520" as="sourcePoint" />
            <mxPoint x="20" y="470" as="targetPoint" />
            <Array as="points">
              <mxPoint x="100" y="720" />
              <mxPoint x="20" y="720" />
              <mxPoint x="20" y="130" />
            </Array>
          </mxGeometry>
        </mxCell>
        <mxCell id="bLsItndPB2Trqsh2UZ6V-30" value="" style="endArrow=classic;html=1;rounded=0;exitX=1;exitY=0.5;exitDx=0;exitDy=0;entryX=1;entryY=0.5;entryDx=0;entryDy=0;entryPerimeter=0;" edge="1" parent="WIyWlLk6GJQsqaUBKTNV-1" source="bLsItndPB2Trqsh2UZ6V-18" target="bLsItndPB2Trqsh2UZ6V-0">
          <mxGeometry width="50" height="50" relative="1" as="geometry">
            <mxPoint x="30" y="510" as="sourcePoint" />
            <mxPoint x="80" y="460" as="targetPoint" />
            <Array as="points">
              <mxPoint x="330" y="485" />
              <mxPoint x="330" y="130" />
            </Array>
          </mxGeometry>
        </mxCell>
        <mxCell id="bLsItndPB2Trqsh2UZ6V-31" value="" style="endArrow=classic;html=1;rounded=0;exitX=1;exitY=0.5;exitDx=0;exitDy=0;" edge="1" parent="WIyWlLk6GJQsqaUBKTNV-1" source="bLsItndPB2Trqsh2UZ6V-20">
          <mxGeometry width="50" height="50" relative="1" as="geometry">
            <mxPoint x="30" y="510" as="sourcePoint" />
            <mxPoint x="330" y="490" as="targetPoint" />
            <Array as="points">
              <mxPoint x="330" y="610" />
            </Array>
          </mxGeometry>
        </mxCell>
        <mxCell id="bLsItndPB2Trqsh2UZ6V-75" value="" style="edgeStyle=orthogonalEdgeStyle;rounded=0;orthogonalLoop=1;jettySize=auto;html=1;" edge="1" parent="WIyWlLk6GJQsqaUBKTNV-1" source="bLsItndPB2Trqsh2UZ6V-32" target="bLsItndPB2Trqsh2UZ6V-33">
          <mxGeometry relative="1" as="geometry" />
        </mxCell>
        <mxCell id="bLsItndPB2Trqsh2UZ6V-32" value="Interupt" style="strokeWidth=2;html=1;shape=mxgraph.flowchart.terminator;whiteSpace=wrap;" vertex="1" parent="WIyWlLk6GJQsqaUBKTNV-1">
          <mxGeometry x="20" y="910" width="100" height="60" as="geometry" />
        </mxCell>
        <mxCell id="bLsItndPB2Trqsh2UZ6V-33" value="&lt;div&gt;Test I2C&lt;/div&gt;&lt;div&gt;Flag&lt;br&gt;&lt;/div&gt;" style="strokeWidth=2;html=1;shape=mxgraph.flowchart.decision;whiteSpace=wrap;" vertex="1" parent="WIyWlLk6GJQsqaUBKTNV-1">
          <mxGeometry x="20" y="1000" width="100" height="100" as="geometry" />
        </mxCell>
        <mxCell id="bLsItndPB2Trqsh2UZ6V-34" value="Start ClockStretch" style="rounded=1;whiteSpace=wrap;html=1;absoluteArcSize=1;arcSize=14;strokeWidth=2;" vertex="1" parent="WIyWlLk6GJQsqaUBKTNV-1">
          <mxGeometry x="150" y="1025" width="100" height="50" as="geometry" />
        </mxCell>
        <mxCell id="bLsItndPB2Trqsh2UZ6V-35" value="Data" style="strokeWidth=2;html=1;shape=mxgraph.flowchart.decision;whiteSpace=wrap;" vertex="1" parent="WIyWlLk6GJQsqaUBKTNV-1">
          <mxGeometry x="280" y="1000" width="100" height="100" as="geometry" />
        </mxCell>
        <mxCell id="bLsItndPB2Trqsh2UZ6V-36" value="&lt;div&gt;Drive&lt;/div&gt;&lt;div&gt;Indicator&lt;br&gt;&lt;/div&gt;" style="strokeWidth=2;html=1;shape=mxgraph.flowchart.decision;whiteSpace=wrap;" vertex="1" parent="WIyWlLk6GJQsqaUBKTNV-1">
          <mxGeometry x="410" y="1000" width="100" height="100" as="geometry" />
        </mxCell>
        <mxCell id="bLsItndPB2Trqsh2UZ6V-37" value="&lt;div&gt;Turn&lt;/div&gt;&lt;div&gt;Indicator&lt;br&gt;&lt;/div&gt;" style="strokeWidth=2;html=1;shape=mxgraph.flowchart.decision;whiteSpace=wrap;" vertex="1" parent="WIyWlLk6GJQsqaUBKTNV-1">
          <mxGeometry x="540" y="1000" width="100" height="100" as="geometry" />
        </mxCell>
        <mxCell id="bLsItndPB2Trqsh2UZ6V-38" value="&lt;div&gt;Forward&lt;/div&gt;&lt;div&gt;Indicator&lt;br&gt;&lt;/div&gt;" style="strokeWidth=2;html=1;shape=mxgraph.flowchart.decision;whiteSpace=wrap;" vertex="1" parent="WIyWlLk6GJQsqaUBKTNV-1">
          <mxGeometry x="670.5" y="1000" width="100" height="100" as="geometry" />
        </mxCell>
        <mxCell id="bLsItndPB2Trqsh2UZ6V-39" value="&lt;div&gt;Reverse&lt;/div&gt;&lt;div&gt;Indicator&lt;br&gt;&lt;/div&gt;" style="strokeWidth=2;html=1;shape=mxgraph.flowchart.decision;whiteSpace=wrap;" vertex="1" parent="WIyWlLk6GJQsqaUBKTNV-1">
          <mxGeometry x="800" y="1000" width="100" height="100" as="geometry" />
        </mxCell>
        <mxCell id="bLsItndPB2Trqsh2UZ6V-40" value="" style="endArrow=classic;html=1;rounded=0;exitX=1;exitY=0.5;exitDx=0;exitDy=0;exitPerimeter=0;entryX=0;entryY=0.5;entryDx=0;entryDy=0;entryPerimeter=0;" edge="1" parent="WIyWlLk6GJQsqaUBKTNV-1" source="bLsItndPB2Trqsh2UZ6V-35" target="bLsItndPB2Trqsh2UZ6V-36">
          <mxGeometry width="50" height="50" relative="1" as="geometry">
            <mxPoint x="480" y="1180" as="sourcePoint" />
            <mxPoint x="530" y="1130" as="targetPoint" />
          </mxGeometry>
        </mxCell>
        <mxCell id="bLsItndPB2Trqsh2UZ6V-41" value="" style="endArrow=classic;html=1;rounded=0;entryX=0;entryY=0.5;entryDx=0;entryDy=0;entryPerimeter=0;" edge="1" parent="WIyWlLk6GJQsqaUBKTNV-1" target="bLsItndPB2Trqsh2UZ6V-37">
          <mxGeometry width="50" height="50" relative="1" as="geometry">
            <mxPoint x="510" y="1050" as="sourcePoint" />
            <mxPoint x="420" y="1060" as="targetPoint" />
          </mxGeometry>
        </mxCell>
        <mxCell id="bLsItndPB2Trqsh2UZ6V-42" value="" style="endArrow=classic;html=1;rounded=0;entryX=0;entryY=0.5;entryDx=0;entryDy=0;entryPerimeter=0;" edge="1" parent="WIyWlLk6GJQsqaUBKTNV-1" target="bLsItndPB2Trqsh2UZ6V-38">
          <mxGeometry width="50" height="50" relative="1" as="geometry">
            <mxPoint x="640" y="1050" as="sourcePoint" />
            <mxPoint x="550" y="1060" as="targetPoint" />
          </mxGeometry>
        </mxCell>
        <mxCell id="bLsItndPB2Trqsh2UZ6V-43" value="" style="endArrow=classic;html=1;rounded=0;entryX=0;entryY=0.5;entryDx=0;entryDy=0;entryPerimeter=0;exitX=1;exitY=0.5;exitDx=0;exitDy=0;exitPerimeter=0;" edge="1" parent="WIyWlLk6GJQsqaUBKTNV-1" source="bLsItndPB2Trqsh2UZ6V-38" target="bLsItndPB2Trqsh2UZ6V-39">
          <mxGeometry width="50" height="50" relative="1" as="geometry">
            <mxPoint x="530" y="1070" as="sourcePoint" />
            <mxPoint x="560" y="1070" as="targetPoint" />
          </mxGeometry>
        </mxCell>
        <mxCell id="bLsItndPB2Trqsh2UZ6V-44" value="Yes" style="text;html=1;align=center;verticalAlign=middle;resizable=0;points=[];autosize=1;strokeColor=none;fillColor=none;" vertex="1" parent="WIyWlLk6GJQsqaUBKTNV-1">
          <mxGeometry x="370" y="1018" width="40" height="30" as="geometry" />
        </mxCell>
        <mxCell id="bLsItndPB2Trqsh2UZ6V-45" value="No" style="text;html=1;align=center;verticalAlign=middle;resizable=0;points=[];autosize=1;strokeColor=none;fillColor=none;" vertex="1" parent="WIyWlLk6GJQsqaUBKTNV-1">
          <mxGeometry x="500" y="1018" width="40" height="30" as="geometry" />
        </mxCell>
        <mxCell id="bLsItndPB2Trqsh2UZ6V-50" value="No" style="text;html=1;align=center;verticalAlign=middle;resizable=0;points=[];autosize=1;strokeColor=none;fillColor=none;" vertex="1" parent="WIyWlLk6GJQsqaUBKTNV-1">
          <mxGeometry x="630.5" y="1018" width="40" height="30" as="geometry" />
        </mxCell>
        <mxCell id="bLsItndPB2Trqsh2UZ6V-51" value="No" style="text;html=1;align=center;verticalAlign=middle;resizable=0;points=[];autosize=1;strokeColor=none;fillColor=none;" vertex="1" parent="WIyWlLk6GJQsqaUBKTNV-1">
          <mxGeometry x="760" y="1018" width="40" height="30" as="geometry" />
        </mxCell>
        <mxCell id="bLsItndPB2Trqsh2UZ6V-52" value="" style="endArrow=classic;html=1;rounded=0;exitX=1;exitY=0.5;exitDx=0;exitDy=0;exitPerimeter=0;entryX=0;entryY=0.5;entryDx=0;entryDy=0;" edge="1" parent="WIyWlLk6GJQsqaUBKTNV-1" source="bLsItndPB2Trqsh2UZ6V-33" target="bLsItndPB2Trqsh2UZ6V-34">
          <mxGeometry width="50" height="50" relative="1" as="geometry">
            <mxPoint x="190" y="1110" as="sourcePoint" />
            <mxPoint x="240" y="1060" as="targetPoint" />
          </mxGeometry>
        </mxCell>
        <mxCell id="bLsItndPB2Trqsh2UZ6V-53" value="Yes" style="text;html=1;align=center;verticalAlign=middle;resizable=0;points=[];autosize=1;strokeColor=none;fillColor=none;" vertex="1" parent="WIyWlLk6GJQsqaUBKTNV-1">
          <mxGeometry x="110" y="1018" width="40" height="30" as="geometry" />
        </mxCell>
        <mxCell id="bLsItndPB2Trqsh2UZ6V-54" value="" style="endArrow=classic;html=1;rounded=0;entryX=0;entryY=0.5;entryDx=0;entryDy=0;entryPerimeter=0;exitX=1;exitY=0.5;exitDx=0;exitDy=0;" edge="1" parent="WIyWlLk6GJQsqaUBKTNV-1" source="bLsItndPB2Trqsh2UZ6V-34" target="bLsItndPB2Trqsh2UZ6V-35">
          <mxGeometry width="50" height="50" relative="1" as="geometry">
            <mxPoint x="190" y="1110" as="sourcePoint" />
            <mxPoint x="240" y="1060" as="targetPoint" />
          </mxGeometry>
        </mxCell>
        <mxCell id="bLsItndPB2Trqsh2UZ6V-55" value="" style="endArrow=classic;html=1;rounded=0;exitX=1;exitY=0.5;exitDx=0;exitDy=0;exitPerimeter=0;entryX=0;entryY=0.5;entryDx=0;entryDy=0;" edge="1" parent="WIyWlLk6GJQsqaUBKTNV-1" source="bLsItndPB2Trqsh2UZ6V-39" target="bLsItndPB2Trqsh2UZ6V-57">
          <mxGeometry width="50" height="50" relative="1" as="geometry">
            <mxPoint x="540" y="1040" as="sourcePoint" />
            <mxPoint x="890" y="1150" as="targetPoint" />
          </mxGeometry>
        </mxCell>
        <mxCell id="bLsItndPB2Trqsh2UZ6V-56" value="Save Drive Data" style="rounded=1;whiteSpace=wrap;html=1;absoluteArcSize=1;arcSize=14;strokeWidth=2;" vertex="1" parent="WIyWlLk6GJQsqaUBKTNV-1">
          <mxGeometry x="410" y="1120" width="100" height="50" as="geometry" />
        </mxCell>
        <mxCell id="bLsItndPB2Trqsh2UZ6V-57" value="&lt;div&gt;Test and Set &lt;br&gt;&lt;/div&gt;&lt;div&gt;Data Indicators &lt;br&gt;&lt;/div&gt;" style="rounded=1;whiteSpace=wrap;html=1;absoluteArcSize=1;arcSize=14;strokeWidth=2;" vertex="1" parent="WIyWlLk6GJQsqaUBKTNV-1">
          <mxGeometry x="930" y="1025" width="100" height="50" as="geometry" />
        </mxCell>
        <mxCell id="bLsItndPB2Trqsh2UZ6V-58" value="Save Turn Data" style="rounded=1;whiteSpace=wrap;html=1;absoluteArcSize=1;arcSize=14;strokeWidth=2;" vertex="1" parent="WIyWlLk6GJQsqaUBKTNV-1">
          <mxGeometry x="540" y="1120" width="100" height="50" as="geometry" />
        </mxCell>
        <mxCell id="bLsItndPB2Trqsh2UZ6V-61" value="Save Forward Data" style="rounded=1;whiteSpace=wrap;html=1;absoluteArcSize=1;arcSize=14;strokeWidth=2;" vertex="1" parent="WIyWlLk6GJQsqaUBKTNV-1">
          <mxGeometry x="670.5" y="1120" width="100" height="50" as="geometry" />
        </mxCell>
        <mxCell id="bLsItndPB2Trqsh2UZ6V-62" value="Save Reverse Data" style="rounded=1;whiteSpace=wrap;html=1;absoluteArcSize=1;arcSize=14;strokeWidth=2;" vertex="1" parent="WIyWlLk6GJQsqaUBKTNV-1">
          <mxGeometry x="800" y="1120" width="100" height="50" as="geometry" />
        </mxCell>
        <mxCell id="bLsItndPB2Trqsh2UZ6V-63" value="" style="endArrow=classic;html=1;rounded=0;exitX=0.5;exitY=1;exitDx=0;exitDy=0;exitPerimeter=0;entryX=0.5;entryY=0;entryDx=0;entryDy=0;" edge="1" parent="WIyWlLk6GJQsqaUBKTNV-1" source="bLsItndPB2Trqsh2UZ6V-36" target="bLsItndPB2Trqsh2UZ6V-56">
          <mxGeometry width="50" height="50" relative="1" as="geometry">
            <mxPoint x="530" y="1100" as="sourcePoint" />
            <mxPoint x="580" y="1050" as="targetPoint" />
          </mxGeometry>
        </mxCell>
        <mxCell id="bLsItndPB2Trqsh2UZ6V-64" value="" style="endArrow=classic;html=1;rounded=0;exitX=0.5;exitY=1;exitDx=0;exitDy=0;exitPerimeter=0;entryX=0.5;entryY=0;entryDx=0;entryDy=0;" edge="1" parent="WIyWlLk6GJQsqaUBKTNV-1" source="bLsItndPB2Trqsh2UZ6V-37" target="bLsItndPB2Trqsh2UZ6V-58">
          <mxGeometry width="50" height="50" relative="1" as="geometry">
            <mxPoint x="470" y="1110" as="sourcePoint" />
            <mxPoint x="470" y="1130" as="targetPoint" />
          </mxGeometry>
        </mxCell>
        <mxCell id="bLsItndPB2Trqsh2UZ6V-65" value="" style="endArrow=classic;html=1;rounded=0;exitX=0.5;exitY=1;exitDx=0;exitDy=0;exitPerimeter=0;entryX=0.5;entryY=0;entryDx=0;entryDy=0;" edge="1" parent="WIyWlLk6GJQsqaUBKTNV-1" source="bLsItndPB2Trqsh2UZ6V-38" target="bLsItndPB2Trqsh2UZ6V-61">
          <mxGeometry width="50" height="50" relative="1" as="geometry">
            <mxPoint x="480" y="1120" as="sourcePoint" />
            <mxPoint x="480" y="1140" as="targetPoint" />
          </mxGeometry>
        </mxCell>
        <mxCell id="bLsItndPB2Trqsh2UZ6V-66" value="" style="endArrow=classic;html=1;rounded=0;exitX=0.5;exitY=1;exitDx=0;exitDy=0;exitPerimeter=0;entryX=0.5;entryY=0;entryDx=0;entryDy=0;" edge="1" parent="WIyWlLk6GJQsqaUBKTNV-1" source="bLsItndPB2Trqsh2UZ6V-39" target="bLsItndPB2Trqsh2UZ6V-62">
          <mxGeometry width="50" height="50" relative="1" as="geometry">
            <mxPoint x="490" y="1130" as="sourcePoint" />
            <mxPoint x="490" y="1150" as="targetPoint" />
          </mxGeometry>
        </mxCell>
        <mxCell id="bLsItndPB2Trqsh2UZ6V-67" value="Yes" style="text;html=1;align=center;verticalAlign=middle;resizable=0;points=[];autosize=1;strokeColor=none;fillColor=none;" vertex="1" parent="WIyWlLk6GJQsqaUBKTNV-1">
          <mxGeometry x="460" y="1090" width="40" height="30" as="geometry" />
        </mxCell>
        <mxCell id="bLsItndPB2Trqsh2UZ6V-68" value="Yes" style="text;html=1;align=center;verticalAlign=middle;resizable=0;points=[];autosize=1;strokeColor=none;fillColor=none;" vertex="1" parent="WIyWlLk6GJQsqaUBKTNV-1">
          <mxGeometry x="600" y="1090" width="40" height="30" as="geometry" />
        </mxCell>
        <mxCell id="bLsItndPB2Trqsh2UZ6V-69" value="Yes" style="text;html=1;align=center;verticalAlign=middle;resizable=0;points=[];autosize=1;strokeColor=none;fillColor=none;" vertex="1" parent="WIyWlLk6GJQsqaUBKTNV-1">
          <mxGeometry x="731" y="1090" width="40" height="30" as="geometry" />
        </mxCell>
        <mxCell id="bLsItndPB2Trqsh2UZ6V-70" value="Yes" style="text;html=1;align=center;verticalAlign=middle;resizable=0;points=[];autosize=1;strokeColor=none;fillColor=none;" vertex="1" parent="WIyWlLk6GJQsqaUBKTNV-1">
          <mxGeometry x="860" y="1090" width="40" height="30" as="geometry" />
        </mxCell>
        <mxCell id="bLsItndPB2Trqsh2UZ6V-73" value="No" style="text;html=1;align=center;verticalAlign=middle;resizable=0;points=[];autosize=1;strokeColor=none;fillColor=none;" vertex="1" parent="WIyWlLk6GJQsqaUBKTNV-1">
          <mxGeometry x="890" y="1018" width="40" height="30" as="geometry" />
        </mxCell>
        <mxCell id="bLsItndPB2Trqsh2UZ6V-76" value="" style="endArrow=classic;html=1;rounded=0;exitX=1;exitY=0.5;exitDx=0;exitDy=0;" edge="1" parent="WIyWlLk6GJQsqaUBKTNV-1" source="bLsItndPB2Trqsh2UZ6V-57">
          <mxGeometry width="50" height="50" relative="1" as="geometry">
            <mxPoint x="610" y="1170" as="sourcePoint" />
            <mxPoint x="870" y="1220" as="targetPoint" />
            <Array as="points">
              <mxPoint x="1060" y="1050" />
              <mxPoint x="1060" y="1220" />
            </Array>
          </mxGeometry>
        </mxCell>
        <mxCell id="bLsItndPB2Trqsh2UZ6V-77" value="" style="endArrow=classic;html=1;rounded=0;exitX=0.5;exitY=1;exitDx=0;exitDy=0;" edge="1" parent="WIyWlLk6GJQsqaUBKTNV-1" source="bLsItndPB2Trqsh2UZ6V-62">
          <mxGeometry width="50" height="50" relative="1" as="geometry">
            <mxPoint x="610" y="1170" as="sourcePoint" />
            <mxPoint x="720" y="1220" as="targetPoint" />
            <Array as="points">
              <mxPoint x="850" y="1220" />
            </Array>
          </mxGeometry>
        </mxCell>
        <mxCell id="bLsItndPB2Trqsh2UZ6V-78" value="" style="endArrow=classic;html=1;rounded=0;exitX=0.5;exitY=1;exitDx=0;exitDy=0;" edge="1" parent="WIyWlLk6GJQsqaUBKTNV-1" source="bLsItndPB2Trqsh2UZ6V-61">
          <mxGeometry width="50" height="50" relative="1" as="geometry">
            <mxPoint x="860" y="1180" as="sourcePoint" />
            <mxPoint x="590" y="1220" as="targetPoint" />
            <Array as="points">
              <mxPoint x="720" y="1220" />
            </Array>
          </mxGeometry>
        </mxCell>
        <mxCell id="bLsItndPB2Trqsh2UZ6V-79" value="" style="endArrow=classic;html=1;rounded=0;exitX=0.5;exitY=1;exitDx=0;exitDy=0;" edge="1" parent="WIyWlLk6GJQsqaUBKTNV-1" source="bLsItndPB2Trqsh2UZ6V-58">
          <mxGeometry width="50" height="50" relative="1" as="geometry">
            <mxPoint x="870" y="1190" as="sourcePoint" />
            <mxPoint x="460" y="1220" as="targetPoint" />
            <Array as="points">
              <mxPoint x="590" y="1220" />
            </Array>
          </mxGeometry>
        </mxCell>
        <mxCell id="bLsItndPB2Trqsh2UZ6V-80" value="" style="endArrow=classic;html=1;rounded=0;exitX=0.5;exitY=1;exitDx=0;exitDy=0;" edge="1" parent="WIyWlLk6GJQsqaUBKTNV-1" source="bLsItndPB2Trqsh2UZ6V-56">
          <mxGeometry width="50" height="50" relative="1" as="geometry">
            <mxPoint x="880" y="1200" as="sourcePoint" />
            <mxPoint x="70" y="1290" as="targetPoint" />
            <Array as="points">
              <mxPoint x="460" y="1220" />
              <mxPoint x="70" y="1220" />
            </Array>
          </mxGeometry>
        </mxCell>
        <mxCell id="bLsItndPB2Trqsh2UZ6V-85" value="" style="edgeStyle=orthogonalEdgeStyle;rounded=0;orthogonalLoop=1;jettySize=auto;html=1;" edge="1" parent="WIyWlLk6GJQsqaUBKTNV-1" source="bLsItndPB2Trqsh2UZ6V-81">
          <mxGeometry relative="1" as="geometry">
            <mxPoint x="70" y="1380" as="targetPoint" />
          </mxGeometry>
        </mxCell>
        <mxCell id="bLsItndPB2Trqsh2UZ6V-81" value="End Clock Stretch" style="rounded=1;whiteSpace=wrap;html=1;absoluteArcSize=1;arcSize=14;strokeWidth=2;" vertex="1" parent="WIyWlLk6GJQsqaUBKTNV-1">
          <mxGeometry x="20" y="1300" width="100" height="50" as="geometry" />
        </mxCell>
        <mxCell id="bLsItndPB2Trqsh2UZ6V-83" value="Reload Data" style="rounded=1;whiteSpace=wrap;html=1;absoluteArcSize=1;arcSize=14;strokeWidth=2;" vertex="1" parent="WIyWlLk6GJQsqaUBKTNV-1">
          <mxGeometry x="20" y="1384.5" width="100" height="50" as="geometry" />
        </mxCell>
        <mxCell id="bLsItndPB2Trqsh2UZ6V-84" value="&lt;div&gt;Return and Enable &lt;br&gt;&lt;/div&gt;&lt;div&gt;interrupts&lt;br&gt;&lt;/div&gt;" style="rounded=1;whiteSpace=wrap;html=1;absoluteArcSize=1;arcSize=14;strokeWidth=2;" vertex="1" parent="WIyWlLk6GJQsqaUBKTNV-1">
          <mxGeometry x="20" y="1460" width="100" height="50" as="geometry" />
        </mxCell>
        <mxCell id="bLsItndPB2Trqsh2UZ6V-86" value="" style="endArrow=classic;html=1;rounded=0;exitX=0.5;exitY=1;exitDx=0;exitDy=0;" edge="1" parent="WIyWlLk6GJQsqaUBKTNV-1" source="bLsItndPB2Trqsh2UZ6V-83" target="bLsItndPB2Trqsh2UZ6V-84">
          <mxGeometry width="50" height="50" relative="1" as="geometry">
            <mxPoint x="110" y="1410" as="sourcePoint" />
            <mxPoint x="160" y="1360" as="targetPoint" />
          </mxGeometry>
        </mxCell>
        <mxCell id="bLsItndPB2Trqsh2UZ6V-87" value="" style="endArrow=classic;html=1;rounded=0;exitX=0.5;exitY=1;exitDx=0;exitDy=0;exitPerimeter=0;" edge="1" parent="WIyWlLk6GJQsqaUBKTNV-1" source="bLsItndPB2Trqsh2UZ6V-33">
          <mxGeometry width="50" height="50" relative="1" as="geometry">
            <mxPoint x="90" y="1360" as="sourcePoint" />
            <mxPoint x="70" y="1220" as="targetPoint" />
          </mxGeometry>
        </mxCell>
      </root>
    </mxGraphModel>
  </diagram>
</mxfile>
